<svg width="17" height="16" viewBox="0 0 17 16" fill="currentColor" xmlns="http://www.w3.org/2000/svg">
<path d="M13.5905 6.63607C13.6003 5.86948 13.804 5.11784 14.1824 4.4511C14.5608 3.78435 15.1017 3.22416 15.7548 2.82264C15.3399 2.2301 14.7926 1.74246 14.1563 1.39845C13.52 1.05445 12.8122 0.863556 12.0892 0.840935C10.5469 0.679043 9.05173 1.76381 8.26579 1.76381C7.46466 1.76381 6.25462 0.857009 4.95159 0.883814C4.10876 0.911045 3.28735 1.15613 2.5674 1.5952C1.84746 2.03427 1.25352 2.65235 0.843468 3.38921C-0.932756 6.46453 0.39215 10.9842 2.09366 13.4701C2.94496 14.6874 3.93988 16.0471 5.24174 15.9989C6.51567 15.946 6.99147 15.1865 8.52921 15.1865C10.0527 15.1865 10.4991 15.9989 11.8273 15.9682C13.1943 15.946 14.0556 14.7455 14.877 13.5168C15.4887 12.6494 15.9594 11.6908 16.2716 10.6765C15.4774 10.3406 14.7997 9.77831 14.3229 9.05982C13.8461 8.34132 13.5914 7.49837 13.5905 6.63607Z" fill="#FEFEFE"/>
</svg>
